<svg xmlns="http://www.w3.org/2000/svg" xmlns:xlink="http://www.w3.org/1999/xlink" width="1801" height="89" viewBox="0 0 1801 89">
  <defs>
    <filter id="Path_1122" x="0" y="0" width="1801" height="89" filterUnits="userSpaceOnUse">
      <feOffset dy="3" input="SourceAlpha"/>
      <feGaussianBlur stdDeviation="3" result="blur"/>
      <feFlood flood-opacity="0.161"/>
      <feComposite operator="in" in2="blur"/>
      <feComposite in="SourceGraphic"/>
    </filter>
  </defs>
  <g id="row" transform="translate(9 6)">
    <g transform="matrix(1, 0, 0, 1, -9, -6)" filter="url(#Path_1122)">
      <path id="Path_1122-2" data-name="Path 1122" d="M8,0H1775a8,8,0,0,1,8,8V63a8,8,0,0,1-8,8H8a8,8,0,0,1-8-8V8A8,8,0,0,1,8,0Z" transform="translate(9 6)" fill="#fff"/>
    </g>
    <rect id="Rectangle_1069" data-name="Rectangle 1069" width="32" height="32" rx="9" transform="translate(13 18)" fill="#59e097"/>
    <text id="Car_accident_" data-name="Car accident " transform="translate(125 43)" fill="#797979" font-size="20" font-family="HelveticaNeue-Light, Helvetica Neue" font-weight="300"><tspan x="0" y="0">Car accident </tspan></text>
    <text id="_03_02_2021" data-name="03/02/2021" transform="translate(1020 42)" fill="#797979" font-size="20" font-family="HelveticaNeue-Light, Helvetica Neue" font-weight="300"><tspan x="0" y="0">03/02/2021</tspan></text>
    <text id="_03_02_2021-2" data-name="03/02/2021" transform="translate(1249 42)" fill="#797979" font-size="20" font-family="HelveticaNeue-Light, Helvetica Neue" font-weight="300"><tspan x="0" y="0">03/02/2021</tspan></text>
    <text id="Ori_Lugasi" data-name="Ori Lugasi" transform="translate(1478 42)" fill="#797979" font-size="20" font-family="HelveticaNeue-Light, Helvetica Neue" font-weight="300"><tspan x="0" y="0">Ori Lugasi</tspan></text>
  </g>
</svg>
